<svg width="1920" height="1080" viewBox="0 0 1920 1080" fill="none" xmlns="http://www.w3.org/2000/svg">
<g clip-path="url(#clip0_3_162)">
<path d="M-14 -1.88402C-7.90157 -1.20642 -2.78523 5.04648 3.90591 5.78994C15.6352 7.09319 26.888 8.34793 39.1493 8.34793C53.9019 8.34793 65.794 7.04655 80.0771 3.80039C92.4978 0.977498 104.755 2.3884 117.026 0.105521C143.488 -4.81772 169.972 0.0883803 196.323 0.673963C210.813 0.995956 224.797 2.83073 239.241 3.23195C252.495 3.60013 269.062 4.03024 282.158 6.35838C314.69 12.1419 348.044 10.9059 381.067 10.9059C429.733 10.9059 477.243 11.8279 525.735 15.4534C554.969 17.6392 584.039 13.4639 613.275 13.4639C635.255 13.4639 657.235 13.4639 679.215 13.4639C719.761 13.4639 760.282 13.4639 800.861 13.4639C880.533 13.4639 959.011 -3.83196 1038.61 3.08984C1084.46 7.07706 1130.9 8.90925 1176.89 11.048C1213.89 12.769 1251.06 13.9724 1288.02 16.5903C1328.23 19.4392 1371.79 14.2925 1412 16.5903C1426.67 17.4287 1440.88 16.5903 1455.5 16.5903C1493.31 16.5903 1526.76 15.7063 1564.56 13.606C1611.99 10.9711 1660.03 8.34793 1707.53 8.34793C1723.2 8.34793 1919.84 -5.18208 1919.84 -7" stroke="white" stroke-width="50" stroke-linecap="round"/>
</g>
<defs>
<clipPath id="clip0_3_162">
<rect width="1920" height="1080" fill="white"/>
</clipPath>
</defs>
</svg>
