<svg width="603" height="300" viewBox="0 0 603 300" fill="none" xmlns="http://www.w3.org/2000/svg">
<rect width="603" height="300" fill="#0052FF"/>
<path d="M267.116 227C338.068 227 376.869 168.142 376.869 117.105C376.869 115.433 376.826 113.767 376.761 112.112C384.293 106.66 390.835 99.8569 396 92.1143C389.092 95.1872 381.646 97.2604 373.856 98.1935C381.818 93.4139 387.93 85.8457 390.814 76.8273C383.346 81.2535 375.104 84.4708 366.324 86.2033C359.265 78.6956 349.258 74 338.154 74C316.849 74 299.59 91.2976 299.59 112.621C299.59 115.653 299.913 118.601 300.58 121.428C268.515 119.814 240.108 104.445 221.084 81.0747C217.77 86.7788 215.855 93.4138 215.855 100.486C215.855 113.888 222.655 125.716 233.028 132.638C226.701 132.442 220.74 130.7 215.553 127.804C215.532 127.966 215.532 128.127 215.532 128.298C215.532 147.005 228.831 162.622 246.478 166.164C243.25 167.046 239.828 167.522 236.32 167.522C233.824 167.522 231.414 167.276 229.068 166.826C233.975 182.171 248.221 193.338 265.093 193.652C251.901 204.011 235.266 210.185 217.189 210.185C214.09 210.185 211.013 210.008 208 209.651C225.065 220.604 245.338 227 267.116 227Z" fill="white"/>
</svg>
