<svg width="603" height="300" viewBox="0 0 603 300" fill="none" xmlns="http://www.w3.org/2000/svg">
<rect width="603" height="300" fill="#0052FF"/>
<path d="M378.697 88.7655C378.145 87.1277 377.486 86.6967 376.458 86.2872C374.208 85.4468 370.396 86.7182 370.396 86.7182C370.396 86.7182 235.464 135.594 227.755 141.003C226.096 142.167 225.54 142.856 225.264 143.654C223.931 147.49 228.083 149.192 228.083 149.192L262.861 160.614C262.861 160.614 264.157 160.808 264.619 160.506C272.531 155.463 344.22 109.863 348.355 108.333C349.007 108.139 349.491 108.355 349.362 108.807C347.707 114.669 285.441 170.419 285.441 170.419C285.441 170.419 285.204 170.721 285.054 171.066L284.973 171.023L281.728 205.783C281.728 205.783 280.368 216.429 290.936 205.783C298.392 198.262 305.607 191.969 309.217 188.931C321.176 197.249 334.046 206.451 339.6 211.257C342.389 213.67 344.723 214.058 346.644 213.994C351.916 213.8 353.388 207.96 353.388 207.96C353.388 207.96 377.976 108.247 378.798 94.8858C378.879 93.5712 378.99 92.7523 378.999 91.8472C379.014 90.5972 378.898 89.3474 378.697 88.7655Z" fill="white"/>
</svg>
